<svg class="marks" width="268" height="255" version="1.1" xmlns="http://www.w3.org/2000/svg" xmlns:xlink="http://www.w3.org/1999/xlink"><g transform="translate(53,12)"><g class="mark-group"><g transform="translate(0,0)"><rect class="background" width="1" height="1" style="fill: none;"></rect><g class="mark-group root"><g transform="translate(0,0)"><rect class="background" width="200" height="200" style="fill: none;"></rect><g class="mark-group"><g transform="translate(0,200)"><rect class="background" width="0" height="0" style="pointer-events: none; fill: none;"></rect><g class="mark-rule" style="pointer-events: none;"><line transform="translate(0.5,-200)" x2="0" y2="200" style="fill: none; stroke: #000; stroke-opacity: 0.15; opacity: 1;"></line><line transform="translate(40.5,-200)" x2="0" y2="200" style="fill: none; stroke: #000; stroke-opacity: 0.15; opacity: 1;"></line><line transform="translate(80.5,-200)" x2="0" y2="200" style="fill: none; stroke: #000; stroke-opacity: 0.15; opacity: 1;"></line><line transform="translate(120.5,-200)" x2="0" y2="200" style="fill: none; stroke: #000; stroke-opacity: 0.15; opacity: 1;"></line><line transform="translate(160.5,-200)" x2="0" y2="200" style="fill: none; stroke: #000; stroke-opacity: 0.15; opacity: 1;"></line><line transform="translate(200.5,-200)" x2="0" y2="200" style="fill: none; stroke: #000; stroke-opacity: 0.15; opacity: 1;"></line></g><g class="mark-rule" style="pointer-events: none;"><line transform="translate(0.5,0)" x2="0" y2="6" style="fill: none; stroke: #000; stroke-width: 1; opacity: 1;"></line><line transform="translate(40.5,0)" x2="0" y2="6" style="fill: none; stroke: #000; stroke-width: 1; opacity: 1;"></line><line transform="translate(80.5,0)" x2="0" y2="6" style="fill: none; stroke: #000; stroke-width: 1; opacity: 1;"></line><line transform="translate(120.5,0)" x2="0" y2="6" style="fill: none; stroke: #000; stroke-width: 1; opacity: 1;"></line><line transform="translate(160.5,0)" x2="0" y2="6" style="fill: none; stroke: #000; stroke-width: 1; opacity: 1;"></line><line transform="translate(200.5,0)" x2="0" y2="6" style="fill: none; stroke: #000; stroke-width: 1; opacity: 1;"></line></g><g class="mark-rule" style="pointer-events: none;"></g><g class="mark-text"><text text-anchor="middle" transform="translate(0.5,19)" style="font: 11px sans-serif; fill: #000; opacity: 1;">0</text><text text-anchor="middle" transform="translate(40.5,19)" style="font: 11px sans-serif; fill: #000; opacity: 1;">20</text><text text-anchor="middle" transform="translate(80.5,19)" style="font: 11px sans-serif; fill: #000; opacity: 1;">40</text><text text-anchor="middle" transform="translate(120.5,19)" style="font: 11px sans-serif; fill: #000; opacity: 1;">60</text><text text-anchor="middle" transform="translate(160.5,19)" style="font: 11px sans-serif; fill: #000; opacity: 1;">80</text><text text-anchor="middle" transform="translate(200.5,19)" style="font: 11px sans-serif; fill: #000; opacity: 1;">100</text></g><g class="mark-path" style="pointer-events: none;"><path transform="translate(0.5,0.5)" d="M0,6V0H200V6" style="fill: none; stroke: #000; stroke-width: 1;"></path></g><g class="mark-text"><text text-anchor="middle" transform="translate(100,35)" style="font: bold 11px sans-serif; fill: #000;">Value</text></g></g></g><g class="mark-group"><g transform="translate(0,0)"><rect class="background" width="0" height="0" style="pointer-events: none; fill: none;"></rect><g class="mark-rule" style="pointer-events: none;"><line transform="translate(0,200.5)" x2="200" y2="0" style="fill: none; stroke: #000; stroke-opacity: 0.15; opacity: 1;"></line><line transform="translate(0,175.5)" x2="200" y2="0" style="fill: none; stroke: #000; stroke-opacity: 0.15; opacity: 1;"></line><line transform="translate(0,150.5)" x2="200" y2="0" style="fill: none; stroke: #000; stroke-opacity: 0.15; opacity: 1;"></line><line transform="translate(0,125.5)" x2="200" y2="0" style="fill: none; stroke: #000; stroke-opacity: 0.15; opacity: 1;"></line><line transform="translate(0,100.5)" x2="200" y2="0" style="fill: none; stroke: #000; stroke-opacity: 0.15; opacity: 1;"></line><line transform="translate(0,75.5)" x2="200" y2="0" style="fill: none; stroke: #000; stroke-opacity: 0.15; opacity: 1;"></line><line transform="translate(0,50.5)" x2="200" y2="0" style="fill: none; stroke: #000; stroke-opacity: 0.15; opacity: 1;"></line><line transform="translate(0,25.5)" x2="200" y2="0" style="fill: none; stroke: #000; stroke-opacity: 0.15; opacity: 1;"></line><line transform="translate(0,0.5)" x2="200" y2="0" style="fill: none; stroke: #000; stroke-opacity: 0.15; opacity: 1;"></line></g><g class="mark-rule" style="pointer-events: none;"><line transform="translate(-6,200.5)" x2="6" y2="0" style="fill: none; stroke: #000; stroke-width: 1; opacity: 1;"></line><line transform="translate(-6,175.5)" x2="6" y2="0" style="fill: none; stroke: #000; stroke-width: 1; opacity: 1;"></line><line transform="translate(-6,150.5)" x2="6" y2="0" style="fill: none; stroke: #000; stroke-width: 1; opacity: 1;"></line><line transform="translate(-6,125.5)" x2="6" y2="0" style="fill: none; stroke: #000; stroke-width: 1; opacity: 1;"></line><line transform="translate(-6,100.5)" x2="6" y2="0" style="fill: none; stroke: #000; stroke-width: 1; opacity: 1;"></line><line transform="translate(-6,75.5)" x2="6" y2="0" style="fill: none; stroke: #000; stroke-width: 1; opacity: 1;"></line><line transform="translate(-6,50.5)" x2="6" y2="0" style="fill: none; stroke: #000; stroke-width: 1; opacity: 1;"></line><line transform="translate(-6,25.5)" x2="6" y2="0" style="fill: none; stroke: #000; stroke-width: 1; opacity: 1;"></line><line transform="translate(-6,0.5)" x2="6" y2="0" style="fill: none; stroke: #000; stroke-width: 1; opacity: 1;"></line></g><g class="mark-rule" style="pointer-events: none;"></g><g class="mark-text"><text text-anchor="end" transform="translate(-9,203.5)" style="font: 11px sans-serif; fill: #000; opacity: 1;">0.0</text><text text-anchor="end" transform="translate(-9,178.5)" style="font: 11px sans-serif; fill: #000; opacity: 1;">0.20</text><text text-anchor="end" transform="translate(-9,153.5)" style="font: 11px sans-serif; fill: #000; opacity: 1;">0.40</text><text text-anchor="end" transform="translate(-9,128.5)" style="font: 11px sans-serif; fill: #000; opacity: 1;">0.60</text><text text-anchor="end" transform="translate(-9,103.5)" style="font: 11px sans-serif; fill: #000; opacity: 1;">0.80</text><text text-anchor="end" transform="translate(-9,78.5)" style="font: 11px sans-serif; fill: #000; opacity: 1;">1.0</text><text text-anchor="end" transform="translate(-9,53.5)" style="font: 11px sans-serif; fill: #000; opacity: 1;">1.2</text><text text-anchor="end" transform="translate(-9,28.5)" style="font: 11px sans-serif; fill: #000; opacity: 1;">1.4</text><text text-anchor="end" transform="translate(-9,3.5)" style="font: 11px sans-serif; fill: #000; opacity: 1;">1.6</text></g><g class="mark-path" style="pointer-events: none;"><path transform="translate(0.5,0.5)" d="M-6,0H0V200H-6" style="fill: none; stroke: #000; stroke-width: 1;"></path></g><g class="mark-text"><text text-anchor="middle" transform="translate(-41,100) rotate(-90) translate(0,3)" style="font: bold 11px sans-serif; fill: #000;">Density</text></g></g></g><g class="mark-line marks"><path d="M200,200C199.66666666666666,200,198.66666666666666,200,198,200S196.66666666666666,200,196,200S194.66666666666666,200,194,200S192.66666666666666,200,192,200S190.66666666666666,200,190,200S188.66666666666666,200,188,200S186.66666666666666,200,186,200S184.66666666666666,200,184,200S182.66666666666666,200,182,200S180.66666666666666,200,180,200S178.66666666666666,200,178,200S176.66666666666666,200,176,200S174.66666666666666,200,174,200S172.66666666666666,200,172,200S170.66666666666666,200,170,200S168.66666666666666,200,168,200S166.66666666666666,200,166,200S164.66666666666666,200,164,200S162.66666666666666,200,162,200S160.66666666666666,200,160,200S158.66666666666666,200,158,200S156.66666666666666,200,156,200S154.66666666666666,200,154,200S152.66666666666666,200,152,200S150.66666666666666,200,150,200S148.66666666666666,200,148,200S146.66666666666666,200,146,200S144.66666666666666,200,144,200S142.66666666666666,200,142,200S140.66666666666666,200,140,200S138.66666666666666,200,138,200S136.66666666666666,200,136,200S134.66666666666666,200,134,200S132.66666666666666,200,132,200S130.66666666666666,200,130,200S128.66666666666666,200,128,200S126.66666666666667,200,126,200S124.66666666666667,200,124,200S122.66666666666667,200,122,200S120.66666666666667,200,120,200S118.66666666666667,200,118,200S116.66666666666667,200,116,200S114.66666666666667,200,114,200S112.66666666666667,200,112,200S110.66666666666667,200,110,200S108.66666666666667,200,108,200S106.66666666666667,200,106,200S104.66666666666667,200,104,200S102.66666666666667,200,102,200S100.66666666666667,200,100,200S98.66666666666667,200,98,200S96.66666666666667,200,96,200S94.66666666666667,200,94,200S92.66666666666667,200,92,200S90.66666666666667,200,90,200S88.66666666666667,200,88,200S86.66666666666667,200,86,200S84.66666666666667,200,84,200S82.66666666666667,200,82,200S80.66666666666667,200,80,200S78.66666666666667,200,78,200S76.66666666666667,200,76,200S74.66666666666667,200,74,200S72.66666666666667,200,72,200S70.66666666666667,200,70,200S68.66666666666667,200,68,200S66.66666666666667,200,66,200S64.66666666666667,200,64,200S62.666666666666664,200,62,200S60.666666666666664,200,60,200S58.666666666666664,200,58,200S56.666666666666664,200,56,200S54.666666666666664,200,54,200S52.666666666666664,199,52,199S50.666666666666664,200,50,200S48.666666666666664,200,48,200S46.666666666666664,200,46,200S44.666666666666664,200,44,200S42.666666666666664,200,42,200S40.666666666666664,22,40,22S38.666666666666664,200,38,200S36.666666666666664,200,36,200S34.666666666666664,200,34,200S32.666666666666664,200,32,200S30.666666666666668,200,30,200S28.666666666666668,200,28,200S26.666666666666668,200,26,200S24.666666666666668,200,24,200S22.666666666666668,200,22,200S20.666666666666668,200,20,200S18.666666666666668,200,18,200S16.666666666666668,200,16,200S14.666666666666666,200,14,200S12.666666666666666,200,12,200S10.666666666666666,200,10,200S8.666666666666666,200,8,200S6.666666666666667,200,6,200S4.666666666666667,200,4,200S2.6666666666666665,200,2,200S0.3333333333333333,200,0,200" style="fill: none; stroke: #4682b4; stroke-width: 2;"></path></g></g></g></g></g></g></svg>